<svg xmlns="http://www.w3.org/2000/svg"  viewBox="0 0 64 64" width="64px" height="64px"><linearGradient id="IKe0efjh8lUd5BNYkPrwHa" x1="31.5" x2="31.5" y1="9" y2="53" gradientUnits="userSpaceOnUse"><stop offset="0" stop-color="#6dc7ff"/><stop offset="1" stop-color="#e6abff"/></linearGradient><path fill="url(#IKe0efjh8lUd5BNYkPrwHa)" d="M25,41c0-6.627,6.716-12,15-12c6.616,0,12.219,3.43,14.213,8.186	C55.362,34.812,56,32.219,56,29.5C56,18.178,45.031,9,31.5,9S7,18.178,7,29.5c0,7.407,4.695,13.895,11.731,17.497	C18.341,48.724,17.382,51.213,15,53c4.124-0.687,7.303-2.319,9.212-3.922c1.856,0.483,3.809,0.776,5.825,0.876	C26.953,47.756,25,44.564,25,41z"/><linearGradient id="IKe0efjh8lUd5BNYkPrwHb" x1="31.5" x2="31.5" y1="8" y2="57" gradientUnits="userSpaceOnUse"><stop offset="0" stop-color="#1a6dff"/><stop offset="1" stop-color="#c822ff"/></linearGradient><path fill="url(#IKe0efjh8lUd5BNYkPrwHb)" d="M57,29.5C57,17.645,45.561,8,31.5,8S6,17.645,6,29.5c0,7.341,4.307,14.021,11.563,18.01	c-0.449,1.5-1.352,3.331-3.163,4.69c-0.369,0.276-0.501,0.77-0.319,1.193C14.24,53.766,14.604,54,15,54	c0.054,0,0.109-0.005,0.164-0.014c3.564-0.594,6.915-1.976,9.289-3.817c1.684,0.405,3.445,0.657,5.245,0.762	C32.484,52.842,36.077,54,40,54c0.972,0,1.97-0.079,2.975-0.234c0.968,1.083,2.96,2.57,6.861,3.221C49.891,56.995,49.945,57,50,57	c0.37,0,0.716-0.206,0.889-0.542c0.199-0.387,0.126-0.857-0.182-1.165c-0.876-0.876-1.604-2.042-2.094-3.342	C53.192,49.573,56,45.445,56,41c0-1.32-0.247-2.593-0.699-3.795C56.424,34.741,57,32.152,57,29.5z M46.976,50.525	c-0.453,0.205-0.686,0.712-0.547,1.188c0.269,0.926,0.642,1.814,1.098,2.63c-1.968-0.712-2.904-1.649-3.327-2.242	c-0.189-0.267-0.495-0.42-0.814-0.42c-0.061,0-0.121,0.006-0.182,0.017C42.118,51.898,41.041,52,40,52	c-3.609,0-6.892-1.088-9.377-2.856c-0.002-0.002-0.004-0.004-0.006-0.006C27.683,47.048,26,44.082,26,41c0-6.065,6.28-11,14-11	c0.439,0,0.871,0.021,1.3,0.052c0.135,0.01,0.269,0.025,0.403,0.038c0.298,0.029,0.593,0.063,0.885,0.106	c0.143,0.021,0.286,0.043,0.428,0.068c0.304,0.053,0.604,0.114,0.9,0.182c0.107,0.025,0.217,0.046,0.323,0.072	c0.405,0.101,0.803,0.214,1.19,0.343c0.029,0.01,0.057,0.021,0.086,0.031c0.359,0.121,0.71,0.255,1.053,0.399	c0.09,0.038,0.177,0.078,0.266,0.117c0.287,0.127,0.567,0.26,0.841,0.402c0.085,0.044,0.171,0.088,0.255,0.134	c0.294,0.16,0.581,0.328,0.858,0.505c0.048,0.03,0.098,0.059,0.145,0.09c0.331,0.216,0.649,0.442,0.953,0.681	c0.019,0.015,0.036,0.031,0.055,0.046c0.264,0.209,0.514,0.428,0.756,0.653c0.102,0.095,0.198,0.194,0.296,0.292	c0.146,0.146,0.287,0.294,0.424,0.445c0.12,0.134,0.238,0.269,0.351,0.408c0.091,0.111,0.176,0.225,0.262,0.339	c0.131,0.175,0.263,0.349,0.383,0.531c0.018,0.028,0.034,0.057,0.052,0.084c0.32,0.496,0.599,1.014,0.826,1.554	c0.004,0.01,0.012,0.018,0.017,0.028C53.752,38.672,54,39.813,54,41C54,44.907,51.309,48.557,46.976,50.525z M54.097,34.855	c-0.005-0.008-0.012-0.016-0.017-0.024c-0.023-0.034-0.048-0.066-0.071-0.1c-0.212-0.314-0.443-0.618-0.684-0.914	c-0.042-0.051-0.084-0.102-0.127-0.153c-0.559-0.665-1.189-1.282-1.882-1.846c-0.006-0.005-0.013-0.01-0.019-0.015	c-0.72-0.584-1.505-1.111-2.346-1.573c-0.013-0.007-0.026-0.013-0.039-0.02c-0.386-0.211-0.785-0.407-1.193-0.589	c-0.055-0.025-0.109-0.05-0.164-0.074c-0.423-0.184-0.855-0.356-1.298-0.509c-0.049-0.017-0.101-0.031-0.15-0.048	c-0.381-0.128-0.769-0.243-1.164-0.347c-0.115-0.03-0.229-0.061-0.345-0.089c-0.443-0.108-0.891-0.205-1.347-0.282	c-0.051-0.009-0.104-0.014-0.155-0.022c-0.416-0.067-0.838-0.117-1.263-0.157c-0.127-0.012-0.255-0.023-0.383-0.032	C40.97,28.024,40.488,28,40,28c-8.822,0-16,5.832-16,13c0,0.4,0.029,0.797,0.074,1.193c0.016,0.141,0.041,0.28,0.062,0.42	c0.038,0.248,0.083,0.494,0.139,0.739c0.037,0.165,0.077,0.329,0.122,0.492c0.061,0.219,0.132,0.435,0.206,0.651	c0.056,0.163,0.107,0.328,0.171,0.489c0.118,0.296,0.252,0.588,0.396,0.877c0.097,0.195,0.205,0.384,0.313,0.574	c0.112,0.198,0.225,0.395,0.349,0.588c0.103,0.159,0.214,0.314,0.325,0.469c0.128,0.179,0.259,0.356,0.397,0.53	c0.118,0.148,0.237,0.294,0.362,0.439c0.053,0.062,0.1,0.127,0.155,0.188c-0.89-0.138-1.761-0.317-2.608-0.538	c-0.313-0.08-0.647-0.007-0.895,0.202c-0.762,0.639-2.593,1.972-5.559,2.932c0.934-1.401,1.431-2.858,1.694-4.027	c0.101-0.445-0.113-0.901-0.52-1.109C12.182,42.521,8,36.312,8,29.5C8,18.748,18.542,10,31.5,10S55,18.748,55,29.5	C55,31.324,54.697,33.118,54.097,34.855z"/><linearGradient id="IKe0efjh8lUd5BNYkPrwHc" x1="33" x2="33" y1="39" y2="43" gradientUnits="userSpaceOnUse"><stop offset="0" stop-color="#6dc7ff"/><stop offset="1" stop-color="#e6abff"/></linearGradient><circle cx="33" cy="41" r="2" fill="url(#IKe0efjh8lUd5BNYkPrwHc)"/><linearGradient id="IKe0efjh8lUd5BNYkPrwHd" x1="40" x2="40" y1="39" y2="43" gradientUnits="userSpaceOnUse"><stop offset="0" stop-color="#6dc7ff"/><stop offset="1" stop-color="#e6abff"/></linearGradient><circle cx="40" cy="41" r="2" fill="url(#IKe0efjh8lUd5BNYkPrwHd)"/><linearGradient id="IKe0efjh8lUd5BNYkPrwHe" x1="47" x2="47" y1="39" y2="43" gradientUnits="userSpaceOnUse"><stop offset="0" stop-color="#6dc7ff"/><stop offset="1" stop-color="#e6abff"/></linearGradient><circle cx="47" cy="41" r="2" fill="url(#IKe0efjh8lUd5BNYkPrwHe)"/></svg>